<?xml version="1.0" encoding="UTF-8" standalone="no"?>
<svg
   xmlns:dc="http://purl.org/dc/elements/1.1/"
   xmlns:cc="http://creativecommons.org/ns#"
   xmlns:rdf="http://www.w3.org/1999/02/22-rdf-syntax-ns#"
   xmlns:svg="http://www.w3.org/2000/svg"
   xmlns="http://www.w3.org/2000/svg"
   version="1.1"
   width="1000"
   height="945"
   viewBox="0 0 1000 945"
   id="Bundesadler"
   xml:space="preserve"><metadata
     id="metadata9"><rdf:RDF><cc:Work
         rdf:about=""><dc:format>image/svg+xml</dc:format><dc:type
           rdf:resource="http://purl.org/dc/dcmitype/StillImage" /><dc:title></dc:title></cc:Work></rdf:RDF></metadata><defs
     id="defs7" /><path
     d="m 992.763,475.521 c -21.576,2.734 -37.92,-26.272 -37.92,-26.272 L 824.204,212.292 c 0,0 9.267,-101.572 -80.909,-138.732 0,0 -3.091,-6.193 -7.411,-6.193 -2.399,0 13.075,-13.925 14.236,-14.91 12.933,-17.076 -22.139,-0.862 -22.139,-0.862 0,0 -12.756,4.677 -22.034,-0.249 -9.277,-4.926 -30.021,-3.832 -30.021,-3.832 -42.028,0 -52.944,17.342 -52.944,17.342 -5.457,8.21 -10.989,11.926 -10.989,11.926 -8.731,2.736 -4.538,6.005 -4.538,6.005 7.098,-3.832 14.422,9.175 14.422,9.175 0,0 25.123,37.65 57.873,37.65 13.839,0 27.836,-8.757 27.836,-8.757 0,0 31.657,11.494 31.657,68.416 0,56.921 -61.018,125.769 -147.258,125.769 0,0 -6.119,2.304 -6.119,-19.589 0,-31.486 5.178,-19.354 -20.402,-31.823 0.036,0.093 -0.363,-0.167 -1.445,-0.714 0.493,0.248 0.974,0.483 1.445,0.714 -0.135,-0.356 -6.702,-5.943 -6.702,-21.123 v -41.251 c 0,0 23.577,-85.927 23.577,-112.61 0,-26.683 -10.375,-47.035 -10.375,-47.035 0,0 -3.157,-11.762 1.805,-14.023 0,0 15.637,-10.093 15.637,-20.947 0,0 3.009,-13.87 -7.366,-1.512 0,0 -2.091,9.347 -38.171,9.347 0,0 -51.732,-3.527 -67.97,-8.592 -16.236,-5.066 -9.318,6.63 -9.318,6.63 0,0 1.013,7.77 -19.095,2.866 -16.688,-4.07 -30.37,13.592 -30.37,24.433 0,0 0.139,24.479 6.467,36.169 0,0 4.061,3.166 9.923,-14.473 0,0 4.211,-11.306 24.958,5.427 0,0 37.584,24.724 16.386,24.724 -40.741,0 -66.149,-13.417 -66.149,-13.417 0,0 -13.98,-6.784 -5.412,1.809 8.569,8.594 16.688,21.255 66.75,31.658 20.687,4.298 -3.607,4.522 -13.08,4.522 0,0 -31.42,2.409 -39.538,-7.089 0,0 -6.855,1.326 1.469,10.102 16.616,17.522 41.256,32.037 51.464,33.02 15.627,1.505 17.226,6.089 12.33,10.804 -22.531,21.7 -45.956,72.196 -45.956,72.196 -5.457,16.74 -5.894,22.932 -14.316,27.651 0.011,-0.006 -21.848,10.645 -21.848,32.537 0,21.892 -6.118,15.354 -6.118,15.354 -86.24,0 -147.258,-67.032 -147.258,-123.954 0,-56.921 36.125,-72.288 36.125,-72.288 0,0 13.998,8.757 27.836,8.757 32.75,0 53.538,-34.475 53.538,-34.475 0,0 9.288,-5.876 13.362,-5.769 17.286,0.455 -14.47,-19.825 -14.47,-19.825 0,0 -32.785,-18.25 -52.341,-18.25 0,0 -20.74,-1.095 -30.02,3.831 -9.28,4.926 -22.639,-0.356 -22.639,-0.356 0,0 -35.141,-16.247 -22.105,0.908 -1.725,-1.613 14.354,17.975 11.746,17.975 -4.321,0 -7.412,6.193 -7.412,6.193 -90.176,37.16 -78.583,138.74 -78.583,138.74 L 31.586,449.25 C 17.825,474.211 0,475.521 0,475.521 c 0,9.802 18.498,15.898 26.691,15.898 8.188,0 27.813,4.883 50.011,-34.02 l 94.825,-170.706 c 0,0 5.428,-9.912 8.332,1.739 2.904,11.652 0.316,14.687 0.316,14.687 L 65.067,505.811 c 0,0 -11.47,15.466 -23.533,20.39 -12.064,4.924 -7.096,17.916 8.733,20.104 15.83,2.189 34.776,2.181 48.984,-22.783 L 198.41,348.55 c 0,0 2.667,-8.8 6.733,-5.304 4.067,3.495 3.767,13.355 3.767,13.355 l -97.62,177.764 c -20.999,37.158 -39.702,49.573 -39.702,49.573 -10.76,-0.59 -6.105,16.753 16.129,16.753 36.461,0 54.77,-40.935 54.77,-40.935 l 97.218,-173.55 c 0,0 2.324,-7.876 6.392,-0.303 4.066,7.573 2.807,9.056 2.807,9.056 L 142.11,588.076 c -30.007,50.528 -46.28,50.455 -46.28,50.455 0,0 3.767,16.698 23.157,16.698 30.266,0 39.269,-22.362 39.269,-22.362 L 280.371,419.4 c 0,0 3.207,-5.84 7.536,-3.221 4.329,2.617 2.346,8.178 2.346,8.178 L 165.93,653.576 c -22.853,37.16 -40.876,35.633 -40.876,35.633 -0.768,7.826 15.961,14.83 22.92,14.83 37.143,0 49.029,-29.348 49.029,-29.348 l 126.05,-222.992 c 0,0 5.246,-14.244 12.76,-11.781 10.221,3.35 -0.905,17.022 -0.905,17.022 0,0 -110.108,204.968 -127.404,236.556 -17.295,31.584 -39.779,48.053 -39.779,48.053 -19.765,8.674 -8.332,13.008 -8.332,13.008 41.383,29.107 74.203,-28.869 74.203,-28.869 L 365.713,492.57 c 21.563,-39.748 20.182,-48.14 38.478,-49.38 18.296,-1.239 13.668,-0.464 20.45,19.156 11.505,33.285 4.035,50.459 4.035,50.459 -46.549,87.148 -108.167,123.308 -108.167,123.308 1.545,4.559 10.171,10.774 22.333,8.907 29.868,-4.59 17.37,10.574 17.37,10.574 l -56.772,98.039 c -3.412,10.506 -8.219,21.152 -19.427,25.047 -10.147,3.525 -19.201,-1.51 -43.931,-1.51 -22.434,0 -33.393,0.871 -33.393,0.871 -9.305,0 -12.899,16.832 -12.899,26.162 0,9.335 14.433,28.648 15.796,37.448 0.458,2.955 6.806,-7.482 6.806,-7.482 -0.619,-14.927 3.103,-12.439 3.103,-12.439 5.808,0 7.107,5.055 11.155,5.055 4.05,0 10.037,-5.117 20.974,-12.097 19.377,-12.362 4.308,6.525 4.308,6.525 0,0 -12.347,13.543 -24.754,25.36 -12.408,11.819 -4.342,19.905 -4.342,19.905 17.575,32.536 26.407,41.612 26.407,41.612 5.648,0 2.421,-3.238 2.421,-3.238 -3.229,0 -2.691,-7.284 -2.691,-7.284 v -10.341 c 0,-9.953 11.435,-6.542 11.435,-6.542 8.022,0 6.863,-8.75 6.863,-8.75 l 6.422,-25.262 c 3.575,-20.069 8.721,-18.664 8.721,-18.664 l 0.044,60.569 c 0.887,0.233 9.965,3.251 44.279,26.257 0,0 6.797,2.856 -1.887,-11.452 -8.685,-14.306 -3.83,-15.519 -3.83,-15.519 10.546,-6.846 3.606,-21.39 3.606,-21.39 0,0 -4.751,-7.994 -15.917,-34.745 -11.167,-26.747 6.253,-34.988 6.253,-34.988 h 15.439 c 54.592,0 46.92,4.139 46.049,10.489 -4.51,32.858 9.417,9.238 9.417,9.238 3.103,-13.063 18.758,-29.142 18.758,-29.142 12.79,-12.806 -4.433,-23.326 -11.966,-33.039 -7.532,-9.715 -14.268,-4.978 -14.268,-4.978 l -46.274,23.322 c -8.064,-11.195 51.934,-80.133 51.934,-80.133 11.166,-11.816 12.39,-4.391 12.39,-4.391 1.862,12.442 10.882,26.733 10.882,26.733 13.648,18.66 10.563,-12.608 10.563,-12.608 0,-27.543 18.912,-65.705 18.912,-65.705 14.27,-18.037 12.408,4.979 12.408,4.979 0,153.027 -4.884,262.263 -88.314,262.263 0,0 5.512,36.21 45.494,36.21 18.609,0 50.885,-24.262 50.885,-24.262 0,0 27.911,29.283 34.114,29.283 6.204,0 29.777,-29.277 29.777,-29.277 0,0 29.157,24.263 47.77,24.263 34.739,0 53.972,-31.724 53.972,-31.724 -91.194,0 -93.677,-109.488 -93.677,-262.514 0,0 -1.86,-23.018 12.408,-4.979 0,0 17.706,26.298 17.706,62.38 0,0 -3.087,31.27 10.563,12.604 0,0 8.953,-10.91 10.814,-23.352 0,0 1.224,-7.431 12.39,4.387 0,0 66.398,73.369 58.333,84.566 L 604.57,753.362 c 0,0 -5.582,-4.976 -14.268,4.977 0,0 -21.092,16.799 -10.547,32.971 0,0 14.889,18.038 17.989,31.104 0,0 3.103,8.086 3.103,-9.331 0,0 -5.513,-10.843 49.079,-10.843 h 15.438 c 0,0 17.99,2.135 6.823,28.884 -11.166,26.749 -16.412,42.016 -16.412,42.016 0,0 -8.082,11.835 2.463,18.679 0,0 7.711,1.832 -0.973,16.139 -8.686,14.309 1.61,15.502 1.61,15.502 0,0 41.85,-26.684 41.85,-35.392 0,0 2.127,-14.96 -2.215,-26.781 v -33.273 c 0,0 -0.569,-12.439 8.117,18.664 l 11.77,29.713 c 0,0 -0.305,7.609 10.244,12.589 0,0 6.203,0.354 6.203,10.308 v 10.339 c 0,0 -4.059,13.53 12.071,-15.974 0,0 7.779,-18.981 13.362,-22.095 0,0 8.065,-8.083 -4.341,-19.902 -12.408,-11.821 -32.88,-32.971 -32.88,-32.971 0,0 -13.647,-19.283 3.103,-6.221 16.748,13.063 40.322,16.173 40.322,16.173 0,0 3.721,-2.487 3.103,12.441 0,0 1.859,8.089 6.202,8.089 0,0 19.854,-34.84 19.854,-44.17 0,-9.33 -12.742,-27.24 -22.049,-27.24 l -55.496,6.428 c 0,0 -16.784,6.777 -32.31,-25.891 L 625.658,658.19 c 0,0 -11.784,-19.912 17.371,-10.576 11.72,3.754 21.411,0.018 22.955,-4.539 0,0 -72.583,-49.578 -113.528,-134.806 0,0 -5.317,-7.768 6.188,-41.055 6.782,-19.621 1.375,-23.299 19.671,-22.058 18.296,1.24 18.376,7.329 39.942,47.075 L 750.704,728.2 c 0,0 37.06,56.979 78.44,27.869 0,0 11.433,-4.336 -8.331,-13.005 0,0 -16.372,-3.1 -33.667,-34.688 C 769.852,676.792 648.055,459.1 648.055,459.1 c 0,0 -11.798,-14.861 -1.206,-16.72 10.591,-1.857 13.062,11.479 13.062,11.479 l 125.384,222.313 c 0,0 16.057,34.066 53.115,31.586 19.961,-1.334 23.733,-10.725 22.966,-18.551 0,0 -18.022,1.527 -40.875,-35.633 L 698.823,432.773 c 0,0 -5.396,-8.432 -0.053,-9.705 5.345,-1.275 9.934,4.75 9.934,4.75 l 116.737,208.098 c 0,0 11.734,22.918 41.998,22.918 30.265,0 27.176,-15.512 27.176,-15.512 0,0 -24.071,-6.472 -46.926,-44.867 L 739.284,404.902 c 0,0 -3.807,-6.107 -0.03,-9.785 3.775,-3.678 10.834,4.215 10.834,4.215 l 92.646,161.029 c 0,0 22.834,43.354 59.294,43.354 22.235,0 26.89,-17.342 16.131,-16.752 0,0 -22.927,-14.838 -43.926,-51.996 L 780.971,363.41 c 0,0 -3.827,-8.433 0.182,-11.602 4.008,-3.169 10.318,3.55 10.318,3.55 l 95.706,168.161 c 14.208,24.964 35.462,28.08 51.291,25.894 15.831,-2.191 20.195,-10.949 8.131,-15.875 -12.063,-4.926 -26.144,-26.818 -26.144,-26.818 L 811.289,311.324 c 0,0 -4.735,-7.109 -1.025,-13.063 3.709,-5.953 10.852,4.853 10.852,4.853 l 88.008,155.194 c 22.198,38.898 56.091,34.729 64.278,34.729 8.187,0 40.936,-20.254 19.361,-17.516 z"
     id="Bundesadler__x28_Hexagonal_x29__Kontur"
     style="fill:#ffffff" /><path
     d="m 992.763,475.521 c -21.576,2.734 -37.92,-26.272 -37.92,-26.272 L 824.204,212.292 c 0,0 9.267,-101.572 -80.909,-138.732 0,0 -3.091,-6.193 -7.411,-6.193 -2.399,0 13.075,-13.925 14.236,-14.91 12.933,-17.076 -22.139,-0.862 -22.139,-0.862 0,0 -12.756,4.677 -22.034,-0.249 -9.277,-4.926 -30.021,-3.832 -30.021,-3.832 -42.028,0 -52.944,17.342 -52.944,17.342 -5.457,8.21 -10.989,11.926 -10.989,11.926 -8.731,2.736 -4.538,6.005 -4.538,6.005 7.098,-3.832 14.422,9.175 14.422,9.175 0,0 25.123,37.65 57.873,37.65 13.839,0 27.836,-8.757 27.836,-8.757 0,0 31.657,11.494 31.657,68.416 0,56.921 -61.018,125.769 -147.258,125.769 0,0 -6.119,2.304 -6.119,-19.589 0,-31.486 5.178,-19.354 -20.402,-31.823 0.036,0.093 -0.363,-0.167 -1.445,-0.714 0.493,0.248 0.974,0.483 1.445,0.714 -0.135,-0.356 -6.702,-5.943 -6.702,-21.123 v -41.251 c 0,0 23.577,-85.927 23.577,-112.61 0,-26.683 -10.375,-47.035 -10.375,-47.035 0,0 -3.157,-11.762 1.805,-14.023 0,0 15.637,-10.093 15.637,-20.947 0,0 3.009,-13.87 -7.366,-1.512 0,0 -2.091,9.347 -38.171,9.347 0,0 -51.732,-3.527 -67.97,-8.592 -16.236,-5.066 -9.318,6.63 -9.318,6.63 0,0 1.013,7.77 -19.095,2.866 -16.688,-4.07 -30.37,13.592 -30.37,24.433 0,0 0.139,24.479 6.467,36.169 0,0 4.061,3.166 9.923,-14.473 0,0 4.211,-11.306 24.958,5.427 0,0 37.584,24.724 16.386,24.724 -40.741,0 -66.149,-13.417 -66.149,-13.417 0,0 -13.98,-6.784 -5.412,1.809 8.569,8.594 16.688,21.255 66.75,31.658 20.687,4.298 -3.607,4.522 -13.08,4.522 0,0 -31.42,2.409 -39.538,-7.089 0,0 -6.855,1.326 1.469,10.102 16.616,17.522 41.256,32.037 51.464,33.02 15.627,1.505 17.226,6.089 12.33,10.804 -22.531,21.7 -45.956,72.196 -45.956,72.196 -5.457,16.74 -5.894,22.932 -14.316,27.651 0.011,-0.006 -21.848,10.645 -21.848,32.537 0,21.892 -6.118,15.354 -6.118,15.354 -86.24,0 -147.258,-67.032 -147.258,-123.954 0,-56.921 36.125,-72.288 36.125,-72.288 0,0 13.998,8.757 27.836,8.757 32.75,0 53.538,-34.475 53.538,-34.475 0,0 9.288,-5.876 13.362,-5.769 17.286,0.455 -14.47,-19.825 -14.47,-19.825 0,0 -32.785,-18.25 -52.341,-18.25 0,0 -20.74,-1.095 -30.02,3.831 -9.28,4.926 -22.639,-0.356 -22.639,-0.356 0,0 -35.141,-16.247 -22.105,0.908 -1.725,-1.613 14.354,17.975 11.746,17.975 -4.321,0 -7.412,6.193 -7.412,6.193 -90.176,37.16 -78.583,138.74 -78.583,138.74 L 31.586,449.25 C 17.825,474.211 0,475.521 0,475.521 c 0,9.802 18.498,15.898 26.691,15.898 8.188,0 27.813,4.883 50.011,-34.02 l 94.825,-170.706 c 0,0 5.428,-9.912 8.332,1.739 2.904,11.652 0.316,14.687 0.316,14.687 L 65.067,505.811 c 0,0 -11.47,15.466 -23.533,20.39 -12.064,4.924 -7.096,17.916 8.733,20.104 15.83,2.189 34.776,2.181 48.984,-22.783 L 198.41,348.55 c 0,0 2.667,-8.8 6.733,-5.304 4.067,3.495 3.767,13.355 3.767,13.355 l -97.62,177.764 c -20.999,37.158 -39.702,49.573 -39.702,49.573 -10.76,-0.59 -6.105,16.753 16.129,16.753 36.461,0 54.77,-40.935 54.77,-40.935 l 97.218,-173.55 c 0,0 2.324,-7.876 6.392,-0.303 4.066,7.573 2.807,9.056 2.807,9.056 L 142.11,588.076 c -30.007,50.528 -46.28,50.455 -46.28,50.455 0,0 3.767,16.698 23.157,16.698 30.266,0 39.269,-22.362 39.269,-22.362 L 280.371,419.4 c 0,0 3.207,-5.84 7.536,-3.221 4.329,2.617 2.346,8.178 2.346,8.178 L 165.93,653.576 c -22.853,37.16 -40.876,35.633 -40.876,35.633 -0.768,7.826 15.961,14.83 22.92,14.83 37.143,0 49.029,-29.348 49.029,-29.348 l 126.05,-222.992 c 0,0 5.246,-14.244 12.76,-11.781 10.221,3.35 -0.905,17.022 -0.905,17.022 0,0 -110.108,204.968 -127.404,236.556 -17.295,31.584 -39.779,48.053 -39.779,48.053 -19.765,8.674 -8.332,13.008 -8.332,13.008 41.383,29.107 74.203,-28.869 74.203,-28.869 L 365.713,492.57 c 21.563,-39.748 20.182,-48.14 38.478,-49.38 18.296,-1.239 13.668,-0.464 20.45,19.156 11.505,33.285 4.035,50.459 4.035,50.459 -46.549,87.148 -108.167,123.308 -108.167,123.308 1.545,4.559 10.171,10.774 22.333,8.907 29.868,-4.59 17.37,10.574 17.37,10.574 l -56.772,98.039 c -3.412,10.506 -8.219,21.152 -19.427,25.047 -10.147,3.525 -19.201,-1.51 -43.931,-1.51 -22.434,0 -33.393,0.871 -33.393,0.871 -9.305,0 -12.899,16.832 -12.899,26.162 0,9.335 14.433,28.648 15.796,37.448 0.458,2.955 6.806,-7.482 6.806,-7.482 -0.619,-14.927 3.103,-12.439 3.103,-12.439 5.808,0 7.107,5.055 11.155,5.055 4.05,0 10.037,-5.117 20.974,-12.097 19.377,-12.362 4.308,6.525 4.308,6.525 0,0 -12.347,13.543 -24.754,25.36 -12.408,11.819 -4.342,19.905 -4.342,19.905 17.575,32.536 26.407,41.612 26.407,41.612 5.648,0 2.421,-3.238 2.421,-3.238 -3.229,0 -2.691,-7.284 -2.691,-7.284 v -10.341 c 0,-9.953 11.435,-6.542 11.435,-6.542 8.022,0 6.863,-8.75 6.863,-8.75 l 6.422,-25.262 c 3.575,-20.069 8.721,-18.664 8.721,-18.664 l 0.044,60.569 c 0.887,0.233 9.965,3.251 44.279,26.257 0,0 6.797,2.856 -1.887,-11.452 -8.685,-14.306 -3.83,-15.519 -3.83,-15.519 10.546,-6.846 3.606,-21.39 3.606,-21.39 0,0 -4.751,-7.994 -15.917,-34.745 -11.167,-26.747 6.253,-34.988 6.253,-34.988 h 15.439 c 54.592,0 46.92,4.139 46.049,10.489 -4.51,32.858 9.417,9.238 9.417,9.238 3.103,-13.063 18.758,-29.142 18.758,-29.142 12.79,-12.806 -4.433,-23.326 -11.966,-33.039 -7.532,-9.715 -14.268,-4.978 -14.268,-4.978 l -46.274,23.322 c -8.064,-11.195 51.934,-80.133 51.934,-80.133 11.166,-11.816 12.39,-4.391 12.39,-4.391 1.862,12.442 10.882,26.733 10.882,26.733 13.648,18.66 10.563,-12.608 10.563,-12.608 0,-27.543 18.912,-65.705 18.912,-65.705 14.27,-18.037 12.408,4.979 12.408,4.979 0,153.027 -4.884,262.263 -88.314,262.263 0,0 5.512,36.21 45.494,36.21 18.609,0 50.885,-24.262 50.885,-24.262 0,0 27.911,29.283 34.114,29.283 6.204,0 29.777,-29.277 29.777,-29.277 0,0 29.157,24.263 47.77,24.263 34.739,0 53.972,-31.724 53.972,-31.724 -91.194,0 -93.677,-109.488 -93.677,-262.514 0,0 -1.86,-23.018 12.408,-4.979 0,0 17.706,26.298 17.706,62.38 0,0 -3.087,31.27 10.563,12.604 0,0 8.953,-10.91 10.814,-23.352 0,0 1.224,-7.431 12.39,4.387 0,0 66.398,73.369 58.333,84.566 L 604.57,753.362 c 0,0 -5.582,-4.976 -14.268,4.977 0,0 -21.092,16.799 -10.547,32.971 0,0 14.889,18.038 17.989,31.104 0,0 3.103,8.086 3.103,-9.331 0,0 -5.513,-10.843 49.079,-10.843 h 15.438 c 0,0 17.99,2.135 6.823,28.884 -11.166,26.749 -16.412,42.016 -16.412,42.016 0,0 -8.082,11.835 2.463,18.679 0,0 7.711,1.832 -0.973,16.139 -8.686,14.309 1.61,15.502 1.61,15.502 0,0 41.85,-26.684 41.85,-35.392 0,0 2.127,-14.96 -2.215,-26.781 v -33.273 c 0,0 -0.569,-12.439 8.117,18.664 l 11.77,29.713 c 0,0 -0.305,7.609 10.244,12.589 0,0 6.203,0.354 6.203,10.308 v 10.339 c 0,0 -4.059,13.53 12.071,-15.974 0,0 7.779,-18.981 13.362,-22.095 0,0 8.065,-8.083 -4.341,-19.902 -12.408,-11.821 -32.88,-32.971 -32.88,-32.971 0,0 -13.647,-19.283 3.103,-6.221 16.748,13.063 40.322,16.173 40.322,16.173 0,0 3.721,-2.487 3.103,12.441 0,0 1.859,8.089 6.202,8.089 0,0 19.854,-34.84 19.854,-44.17 0,-9.33 -12.742,-27.24 -22.049,-27.24 l -55.496,6.428 c 0,0 -16.784,6.777 -32.31,-25.891 L 625.658,658.19 c 0,0 -11.784,-19.912 17.371,-10.576 11.72,3.754 21.411,0.018 22.955,-4.539 0,0 -72.583,-49.578 -113.528,-134.806 0,0 -5.317,-7.768 6.188,-41.055 6.782,-19.621 1.375,-23.299 19.671,-22.058 18.296,1.24 18.376,7.329 39.942,47.075 L 750.704,728.2 c 0,0 37.06,56.979 78.44,27.869 0,0 11.433,-4.336 -8.331,-13.005 0,0 -16.372,-3.1 -33.667,-34.688 C 769.852,676.792 648.055,459.1 648.055,459.1 c 0,0 -11.798,-14.861 -1.206,-16.72 10.591,-1.857 13.062,11.479 13.062,11.479 l 125.384,222.313 c 0,0 16.057,34.066 53.115,31.586 19.961,-1.334 23.733,-10.725 22.966,-18.551 0,0 -18.022,1.527 -40.875,-35.633 L 698.823,432.773 c 0,0 -5.396,-8.432 -0.053,-9.705 5.345,-1.275 9.934,4.75 9.934,4.75 l 116.737,208.098 c 0,0 11.734,22.918 41.998,22.918 30.265,0 27.176,-15.512 27.176,-15.512 0,0 -24.071,-6.472 -46.926,-44.867 L 739.284,404.902 c 0,0 -3.807,-6.107 -0.03,-9.785 3.775,-3.678 10.834,4.215 10.834,4.215 l 92.646,161.029 c 0,0 22.834,43.354 59.294,43.354 22.235,0 26.89,-17.342 16.131,-16.752 0,0 -22.927,-14.838 -43.926,-51.996 L 780.971,363.41 c 0,0 -3.827,-8.433 0.182,-11.602 4.008,-3.169 10.318,3.55 10.318,3.55 l 95.706,168.161 c 14.208,24.964 35.462,28.08 51.291,25.894 15.831,-2.191 20.195,-10.949 8.131,-15.875 -12.063,-4.926 -26.144,-26.818 -26.144,-26.818 L 811.289,311.324 c 0,0 -4.735,-7.109 -1.025,-13.063 3.709,-5.953 10.852,4.853 10.852,4.853 l 88.008,155.194 c 22.198,38.898 56.091,34.729 64.278,34.729 8.187,0 40.936,-20.254 19.361,-17.516 z"
     id="path3184"
     style="fill:#000000" /><path
     d="m 247.344,804.604 c -2.962,1.89 -5.507,3.609 -7.751,5.13 -1.905,1.288 -4.239,3.756 -8.45,3.756 -4.212,0 -8.236,-4.021 -8.946,-4.021 -3.006,0 -12.858,-20.358 -11.363,-22.389 2.148,-0.146 13.29,-1.049 31.044,-1.049 9.656,0 21.815,0.303 27.474,0.303 12.366,0 -5.544,12.828 -5.544,12.828 -4.7,2.284 -10.327,1.527 -16.464,5.442 z"
     id="path3178"
     style="fill:#ffffff" /><path
     d="m 280.417,811.615 -16.79,54.17 c -0.221,-0.007 -0.457,-0.087 -0.669,-0.009 -8.536,3.169 -19.38,-1.813 -22.473,-7.536 l -0.681,-1.259 -3.303,-3.747 c 0,-0.403 0.461,-2.132 3.378,-4.909 l 35.443,-41.797 c 0.003,0 9.853,-10.269 5.095,5.087 z"
     id="path3176"
     style="fill:#ffffff" /><path
     d="m 649.926,791.66 c -24.657,5.385 -36.849,5.813 -40.825,5.813 -3.978,0 -14.247,-11.188 -15.812,-13.121 -4.399,-7.727 3.857,-14.721 3.991,-14.829 l 0.705,-0.568 0.636,-0.717 c 0.948,-1.086 1.694,-1.748 2.216,-2.142 0,0 46.938,19.558 50.501,22.845 3.561,3.285 -1.412,2.719 -1.412,2.719 z"
     id="path3174"
     style="fill:#ffffff" /><path
     d="m 712.149,793.732 c 2.559,-0.222 28.147,-4.357 22.034,-3.919 0,0 36.187,-2.684 36.384,1.644 0,9.455 -11.338,24.065 -14.573,24.065 -0.2,0 -0.402,0.006 -0.604,0.019 -4.933,-0.871 -10.704,-0.82 -22.752,-10.219 -6.407,-4.999 -11.668,-6.129 -15.646,-6.129 -0.002,0 -11.444,-4.891 -4.843,-5.461 z"
     id="path3172"
     style="fill:#ffffff" /><path
     d="m 703.703,811.656 c 3.857,-1.289 15.002,11.604 15.002,11.604 0.854,0.858 17.937,17.94 29.969,36.057 3.591,5.402 -20.11,15.645 -20.11,15.645 l -3.81,-2.579 c 0,0 -7.05,-10.776 -12.479,-30.211 l -7.286,-19.341 c 10e-4,0 -5.141,-9.885 -1.286,-11.175 z"
     id="path3170"
     style="fill:#ffffff" /><path
     d="m 522.698,41.158 c 0.394,2.951 -0.104,4.608 -4.442,5.441 -7.688,1.474 -14.779,-2.608 -14.779,-2.608 0,0 10.427,1.185 16.977,-4.613 2.115,-1.873 1.941,-0.495 2.244,1.78 z"
     id="path3102"
     style="fill:#ffffff" /><path
     d="m 516.661,28.14 c -24.178,-2.178 -27.256,4.271 -31.09,7.295 -0.027,-0.025 -0.054,-0.05 -0.082,-0.075 -15.955,-14.543 6.995,-14.242 31.172,-7.22 z"
     id="path3100"
     style="fill:#ffffff" /><path
     d="m 464.669,58.368 c -9.418,-7.516 -17.485,-11.171 -24.652,-11.171 -4.832,0 -8.79,1.684 -11.68,4.099 -0.441,-4.311 -0.651,-8.437 -0.675,-11.55 0,-4.009 6.61,-14.389 14.906,-14.389 0.798,0 1.614,0.1 2.425,0.298 5.308,1.294 9.765,1.924 13.622,1.923 0,0 10.4,-0.702 10.4,14.753 0,0 -0.963,3.542 3.854,3.542 h 9.17 c 0,0 33.375,10.142 33.375,54.415 0,44.271 -14.91,40.892 -14.91,40.892 v -11.753 c 0,0 0,-16.114 0,-19.919 10e-4,-4.631 -5.102,-30.822 -35.835,-51.14 z"
     id="path3098"
     style="fill:#ffffff" /><path
     d="m 471.565,104.31 c -12.432,-2.582 -22.113,-5.286 -29.771,-8.008 9.475,1.708 20.586,2.457 33.056,2.911 13.94,0.509 12.162,8.888 12.162,8.888 l -6.8,-1.309 c -2.666,-1.24 -5.881,-1.908 -8.647,-2.482 z"
     id="path3096"
     style="fill:#ffffff" /><path
     d="m 482.988,143.903 c -3.735,-1.213 -7.833,-1.802 -11.631,-2.168 -4.199,-0.404 -15.615,-5.957 -27.572,-14.725 1.483,0.045 3.011,0.069 4.582,0.069 4.398,0 7.785,-0.195 8.955,-0.273 6.62,0 12.316,-0.009 16.968,-0.506 h 12.869 v 13.428 c -1.126,0.322 -4.171,4.175 -4.171,4.175 z"
     id="path3094"
     style="fill:#ffffff" /><path
     d="m 404.58,368.591 c -10.279,-0.96 -19.566,-2.104 -28.003,-3.426 -60.039,-9.411 -77.204,-27.808 -106.619,-52.169 -45.405,-37.6 -51.229,-90.716 -51.229,-132.791 0,-43.891 15.319,-71.45 58.521,-91.701 2.137,-1.001 10.884,-0.676 13.257,0.574 2.804,1.476 3.76,6.18 -1.466,7.313 -55.862,12.021 -58.258,83.814 -58.258,83.814 0,77.32 22.485,140.988 151.356,163.384 7.927,1.377 10.896,2.596 19.646,3.654 2.392,2.643 2.619,5.931 2.619,9.51 0.003,4.727 4.093,8.956 0.176,11.838 z"
     id="path3050"
     style="fill:#ffffff" /><path
     d="m 314.564,861.24 c 0.297,0.737 8.31,17.349 -2.65,17.349 -10.961,0 -18.006,-1.785 -18.006,-7.638 l -0.042,-52.622 c 0,-5.307 5.286,1.714 5.286,1.714 0.521,4.308 1.761,9.061 3.938,14.274 9.163,21.954 10.188,24.636 11.474,26.923 z"
     id="path3040"
     style="fill:#ffffff" /><path
     d="m 380.003,759.875 c 1.994,2.574 6.462,4.689 8.738,7.027 2.471,2.534 -2.278,22.35 -12.866,22.35 -8.3,-4.752 -47.994,-0.887 -47.994,-5.807 0,0 51.389,-24.515 52.122,-23.57 z"
     id="path3038"
     style="fill:#ffffff" /><path
     d="m 396.146,666.447 -15.756,18.782 c 0,0 -15.7,18.056 -29.76,36.779 -27.316,36.381 -38.378,60.389 -39.854,63.922 -1.474,3.533 -21.181,5.191 -16.99,-0.266 4.19,-5.459 13.21,-16.879 19.331,-27.686 l 55.846,-100.07 c 3.574,-4.746 2.085,-7.93 4.506,-14.785 4.17,-11.809 22.677,-10.4 22.677,-3.957 v 27.281 z"
     id="path3036"
     style="fill:#ffffff" /><path
     d="m 690.082,878.26 c -13.619,10.731 -24.097,0.55 -24.097,0.55 l -1.006,-7.832 2.165,-6.121 c 0.051,-0.152 3.899,-3.599 14.771,-29.648 l 4.136,-13.795 c 3.351,2.877 1.912,7.107 1.912,7.107 v 34.648 l 0.648,1.771 c 2.636,7.171 1.914,9.519 1.471,13.32 z"
     id="path3022"
     style="fill:#ffffff" /><path
     d="m 676.493,763.316 13.259,21.401 c 0,0 7.489,8.51 -0.499,11.014 -7.987,2.503 -11.482,-6.01 -11.482,-6.01 l -40.203,-61.414 c -15.633,-19.793 -32.804,-38.793 -32.804,-38.793 0,0 -7.37,-7.422 -11.363,-8.922 -3.994,-1.502 -4.492,-11.518 -4.492,-11.518 V 648.05 c 0,0 2,-14.522 12.979,-7.008 10.979,7.518 8.576,5.75 13.8,21.939 7.26,22.511 60.805,100.335 60.805,100.335 z"
     id="path3020"
     style="fill:#ffffff" /><path
     d="m 626.403,364.68 c -13.05,2.209 -28.309,3.954 -46.454,5.201 -1.038,-2.223 -0.958,-4.63 -0.958,-7.156 0,-5.851 2.4,-11.096 7.265,-14.739 9.047,-1.005 17.615,-2.187 25.741,-3.53 130.418,-21.586 145.571,-85.911 145.571,-164.25 0,-35.285 -14.904,-61.003 -40.908,-79.44 0,0 -9.15,-10.556 2.481,-4.968 14.381,6.909 27.162,15.01 35.9,29.054 9.314,14.97 14.58,33.188 14.58,55.354 0,47.865 -5.431,97.042 -44.82,132.469 -27.085,24.36 -42.249,42.497 -98.398,52.005 z"
     id="path3000"
     style="fill:#ffffff" /></svg>
