<svg xmlns="http://www.w3.org/2000/svg" width="200" height="260"
fill="none" stroke="#000" stroke-width="2">
<clipPath id="c">
<path d="M199,1L1,1c0,0 1,69 5,106c4,36 18,79 35,106c13,23 36,45
59,46c23,0 46-24 59-46c17-28 31-71 35-106c4-37 5-105 5-106"/>
</clipPath>
<g clip-path="url(#c)">
<rect fill="#DA121A" width="200" height="260"/>
<path stroke="#FFF" stroke-width="43" d="m100,0v260M0,99h200"/>
<path d="m77.5,1v75.5H0m0,45h77.5v260m45
0V121.5H200m0-45H122.5V0M84.5,0v83.5H0m0,31H84.5v260m31,0V114.5H200m0-31H115.5V0"/>
</g>
<path d="M199,1L1,1c0,0 1.2,68.6 5,106c4.2,36
18.2,79 35,106c13.4,22.7 36,45 59,46c23,0 45.6-24.2
59-46c16.7-27.9 30.7-71 35-106c4.2-37.2 5.3-105 5-106z"/>
</svg>